# xmcd
#
# Track frame offsets:
#	150
#	17520
#	32104
#	45021
#	62388
#	79878
#	90821
#	104435
#	122692
#	137207
#	151199
#	166641
#
# Disc length: 2422 seconds
#
# Revision: 1
# Processed by: cddbd v1.4PL0 Copyright (c) Steve Scherf et al.
# Submitted via: CDmax 2.0
#
DISCID=7b09740c
DTITLE=Merle Haggard - The Peer Sessions
DYEAR=2002
DGENRE=Country
TTITLE0=Peach Pickin' Time In Georgia
TTITLE1=If It's Wrong To Love You
TTITLE2=Sweethearts Or Strangers
TTITLE3=Put Me In Your Pocket
TTITLE4=Anniversary Blue Yodel
TTITLE5=Shackles And Chains
TTITLE6=Miss The Mississippi And You
TTITLE7=It Makes No Difference Now
TTITLE8=Whippin' That Old T.B.
TTITLE9=Hang On To The Memories
TTITLE10=I Love You So Much It Hurts
TTITLE11=Time Changes Everything
EXTD=
EXTT0=
EXTT1=
EXTT2=
EXTT3=
EXTT4=
EXTT5=
EXTT6=
EXTT7=
EXTT8=
EXTT9=Duet with Jimmie Davis
EXTT10=
EXTT11=
PLAYORDER=
